<?xml version="1.0" encoding="utf-8"?>
<!-- Generator: Adobe Illustrator 24.1.2, SVG Export Plug-In . SVG Version: 6.00 Build 0)  -->
<svg version="1.1" id="Capa_1" xmlns="http://www.w3.org/2000/svg" xmlns:xlink="http://www.w3.org/1999/xlink" x="0px" y="0px"
	 viewBox="0 0 768 768" style="enable-background:new 0 0 768 768;" xml:space="preserve">
<style type="text/css">
	.st0{fill:#390B00;}
</style>
<g>
	
		<image style="overflow:visible;opacity:0.4;enable-background:new    ;" width="915" height="887" xlink:href="D6FB51CF.png"  transform="matrix(0.805 0 0 0.805 15.7306 27)">
	</image>
	<g>
		<g>
			<g>
				<path class="st0" d="M464.6,614.1c9.8-19.8,7-35.5-9.2-51.5c-12.5-12.4-27.9-20.4-42.9-29.1c-6.4-3.7-12.8-7.5-19.2-11.2
					c0.1-0.5,0.2-1,0.2-1.4c1.6,0,3.1,0,4.7,0c44.8,0,89.6,0,134.4,0c4.2,0,9.1,0.9,9.7-5.3c0.5-4.2-2.9-6.2-9.7-6.2
					c-48.7,0-97.4-0.1-146.1-0.1c-1,0-2.3-0.3-3.1,0.2c-6.1,3.6-9.2-1-12.6-4.5c-7.6-7.7-13.3-16.2-10.4-27.9
					c2-8.2,7.3-14.2,14.6-17.3c12.2-5.2,24.8-9.1,37.4-13.1c16.5-5.3,33.6-9.2,48.2-18.9c4.9-3.3,9.6-7.4,13.3-12
					c9.1-11.4,6.2-24.7-6.5-32c-11.1-6.3-23.4-9.2-35.9-10.5c-18-1.9-36-3-54-4.4c-1.7-0.2-3.3-0.3-5.1-1
					c25.3-11.6,51.4-20.3,79.4-25.8c0,4.9,0,9.1,0,14.2c2.7-3.5,3.6-108.7,1.9-121.6c2.3-3.8,4-6.7,5.9-9.8c0.6,0.8,1.5,2.1,2.4,3.4
					c1.9-0.6,3.6-1.1,5.8-1.8c0-16.4,0-33.5,0-49.7c1.3-3.1,2.3-5.6,3.5-8.1c0.6-1.4,1.3-2.8,1.9-4.3c0.7,1.4,1.4,2.8,2.2,4.2
					c0.2,0.5,0.6,0.8,1.5,2.3c0.8-1.9,1.7-3.1,1.7-4.2c-0.1-9.3-0.4-18.8-0.6-28.1c0-1,0.5-3,1-3.1c4.4-0.8,3.5-4.1,3.5-7
					c-0.1-4.4-0.1-8.9-0.2-13.3c-0.1-2.6-0.9-5.2,2.7-6.6c1-0.4,1.4-3.8,1.3-5.7c-0.5-4.7,1.3-7.8,5.8-9.4c4.7-1.8,11.4-1,14,1.9
					c0.7,0.9,1.3,2.2,1.4,3.3c0.7,9.2,3.3,18.2,2.4,27.5c-0.3,3.4-1.2,7.6,4.3,8.6c0.5,0.1,0.7,2.4,0.7,3.7
					c0.2,9.2,0.2,18.4,0.3,27.6c0,1.6,0.7,3.1,2.3,4.6c0.4-2.1,0.8-4.2,1.2-6.3c0.4-0.2,0.7-0.3,1.1-0.4c1.5,3.9,3.1,7.9,4.7,11.8
					c0.3-0.2,0.6-0.3,0.9-0.4c0,8.9-0.1,17.6,0,26.5c0.2,8.6-0.6,17.3,1.1,27.2c4.3-4.7,6.7-5.7,7.5,0.2c0.1,0.9,2,2.3,3,2.3
					c5.2-0.3,5.4,2.7,5.4,6.8c-0.1,32.2,0,64.5,0.1,96.7c0,1.9,0,3.8,0,6.1c6.8-0.9,13-1.8,19.9-2.7c0,11.5,0,22.6,0,34.1
					c2.8,0,5.2,0,8,0c0-11.6,0-23.3,0-35.3c15.9-3.3,31.3-8.2,47.3-0.6c2.7,1.4,3.5,2.7,3.5,5.5c-0.2,10.1-0.1,20.1-0.1,30.5
					c2.5,0,4.7,0,7.5,0c0-7.1,0-14,0-21.5c5.8,0.8,11,1.4,16.9,2.3c0-10.3,0.6-20.3-0.1-30.3c-3.1-47.6-17.2-91.7-43.7-131.5
					c-20.3-30.4-45.2-56.3-76.4-75.7c-2.7-1.7-4.1-3.6-3.8-6.8c0.2-1.9-0.1-3.9-0.2-5.9c-0.2-8.5-3.8-15-11.6-18.8
					c-2-1-4-2.2-6.3-3.4c0.2-2.7,0.3-5.5,0.5-8.4c82.6,33.1,176.5,137.7,169,280.6C665.7,488.5,557.9,593.5,464.6,614.1z M425,456.4
					c1.8,0.3,2.3,0.5,2.7,0.5c52.6,0,105.1,0,157.7,0c1.9,0,4.3,0.2,5.7-0.6c2-1.3,4.7-3.5,4.7-5.3c-0.1-1.9-2.7-4.3-4.7-5.5
					c-1.6-1-4.1-0.6-6.3-0.6c-12.7,0-25.5,0.2-38.2,0.2c-31.9,0.1-63.8,0.1-95.5,0.2C441.3,445.3,433,449.3,425,456.4z M474.5,243.7
					c0.6,0.1,1.3,0.2,2,0.3c0,2.3,0,4.5,0,6.8c0,33.6,0.1,67.3-0.1,100.9c0,4.1,1,6.1,5.2,4.4c0-41.6,0-82.9,0-124
					c-7.3-2.7-3.7,6.4-7.6,6.6c-1.6-1.8-2.8-3.1-4-4.4c-0.7,1.5-2.1,3.1-2.1,4.7c-0.2,37-0.3,74.1-0.3,111c0,2.1,0.2,4.1,0.3,6.2
					c5.6,1.8,5.9-1.3,5.9-5.1c-0.1-34-0.1-68-0.1-102C473.7,247.4,474.2,245.5,474.5,243.7z M578.1,413.6c12.2,0,24.4-0.1,36.6,0
					c4.2,0,8-1,7.9-5.7c-0.1-4.5-3.7-6-7.9-6c-24.8,0.1-49.6,0.1-74.3,0.2c-1,0-2.3-0.1-3.1,0.4c-1.6,1.2-3.8,2.6-4.1,4.3
					c-0.3,1.6,0.9,4.2,2.3,5.3c1.4,1.1,3.9,1.4,6,1.4C553.6,413.6,565.8,413.5,578.1,413.6z M489,221.6c0-15.8,0-30.9,0-46.8
					c-2.1,0.6-4.5,0.7-4.7,1.4c-1.8,7.2-4.3,2.6-6.3,0.3c-3.1,3.1-4.3,40.4-1,48.5c1.5-1.4,3.2-3.2,3.4-5c0.3-5.3,0-10.6,0-15.9
					c0-5.5,0.1-10.9,0.3-16.4c0.1-0.9,1.1-1.8,1.8-2.7c0.6,0.9,1.4,1.8,1.6,2.7c0.3,1.5,0.2,3.1,0.2,4.7c0,9.7,0,19.4,0,29.4
					C486.1,221.8,487.5,221.7,489,221.6z M485.5,166.1c0.5,0.4,0.9,0.9,1.4,1.3c1.1-1.2,3.3-2.3,3.4-3.6c0.3-7.6,0.2-15.4,0.2-23
					c-4-0.7-4.9,1.3-4.9,4.2C485.5,152,485.5,159,485.5,166.1z M523.3,409.8c0-0.8,0.1-1.6,0.1-2.4c-2.3-1.7-4.3-4.4-6.8-4.8
					c-3.5-0.6-6.6,2-5.8,5.6c0.6,2.4,3.5,5.3,6,5.9C518.5,414.3,521.1,411.3,523.3,409.8z M556.7,521.8c0.8,0,1.7,0,2.5,0
					c1.5-2.2,4.6-4.7,4.2-6.4c-0.5-2.4-3.6-4.2-5.6-6.3c-1.9,1.9-5.3,3.8-5.4,5.8C552.2,517.1,555.1,519.5,556.7,521.8z
					 M488.7,131.6c0.5,0,1,0.1,1.4,0.1c0-5.6,0-11,0-16.3C487.4,116.7,486.4,124.6,488.7,131.6z"/>
				<path class="st0" d="M248.6,173.7c-12.6-4.5-24.6-4.1-36,2.4c-11.5,6.7-16.1,18.3-19.5,30.5c-0.5,0.2-1,0.2-1.5,0.4
					c-1.4-1.9-3.1-3.8-4.2-5.9c-5.6-11.4-2.3-26.9,8.7-36.7c12.6-11.3,27.5-16.1,45.6-12.7c-2.4-2-4.3-3.4-6-5.1
					c-3-3.2-6.5-6.2-8.5-10c-6.8-12.6-16.7-21.4-29.9-26.6c-0.6-0.2-1.1-0.7-1.8-1.1c20.4-12.2,60-1.4,66.2,32.3
					c9.6-18.1,22.7-30.3,43.9-29.5c10.5,0.4,20.4,3.2,28.2,11.7c-35.9,11-45.8,16.7-53.7,30.6c17.9-5.9,34.8-6.5,46.4,10.9
					c8.1,12.2,5,31.8-6,43.9c-2.8-14.8-7-28.7-21.8-36.9c9,19.7,9.7,38.2-3.9,55.4c-7.2,9.1-16.7,13.6-29.5,14
					c11.2-11.5,16.5-24.1,15.2-39c-0.6-7.3-3.1-13.9-9.5-19.9c4.8,20.8,0.9,38-15.6,50.9c-7.6,6-16.4,8.5-27,5.8
					c16.3-13.2,25.7-28.8,23.7-50c-37.8,21.3-73,96.7-68.7,146.8c10.5,0,20.8-0.3,31.2,0.1c49,1.6,96,12.7,140.6,32.9
					c14.7,11.8,33.7,10.3,50.5,15.9c4.5,1.5,9.3,2.7,13.5,4.7c6.8,3.2,7.2,7.4,0.6,10.9c-6,3.3-12.6,5.9-19.2,7.6
					c-32.4,8.8-65.4,11.8-98.8,11.5c-32.6-0.2-65.2,0-97.8,0.1c-1.6,0-3.5-0.6-4.7,0.2c-2.2,1.4-5.2,3.4-5.3,5.2
					c-0.1,2,2.5,4.6,4.5,6.1c1.3,1,3.8,0.4,5.7,0.4c35.1,0,70.1-0.1,105.2-0.2c1,0,2,0.1,4.5,0.2c-21.7,9.2-39.3,20.9-48.6,42.6
					c-3,0-6.2,0-9.3,0c-23.7,0-47.5,0-71.2,0c-1.9,0-4.3-0.5-5.7,0.4c-2.1,1.4-4.7,3.9-4.7,5.9c0,1.9,3,4.3,5.2,5.2
					c2.3,1,5.2,0.5,7.9,0.5c23,0,46,0.1,69.1,0.1c1.9,0,3.9,0,5.1,0c1.9,14.2,3.6,27.8,5.6,41.9c-4.8,0-10.1,0.1-15.3,0
					c-4.3-0.1-7.8,1.4-7.7,6c0.1,4.2,3.5,5.8,7.5,5.8c5.1,0,10.2,0,15.9,0c-2.2,21-15.9,33.9-30,46.7
					c-43-28.4-78.4-63.5-104.2-108.1c-31.9-55.1-43.9-114.3-36.1-177.4c8.3-67.4,36.5-125.2,85.1-172.8c9.3-9.1,10.2-9.2,21.4-2.5
					c4.7,2.8,8.5,7.2,13.4,11.4c-14.7,7.2-26.6,15.9-35.1,28.5c-9.5,14.2-19,28.7-27.2,43.7c-21.6,39.4-32.7,81.5-32.4,126.6
					c0,2.7,0,5.3,0,8.6c10.6-1.9,20.8-3.8,31.2-5.7c0,9.4,0,18.2,0,27.7c-9.5,0-19.2,0-29.7,0c0.6,4.3,1.2,7.9,1.9,11.9
					c9.7,0,18.9,0,28.3,0c2,14.3,3.9,28.2,5.9,42.4c1.5-0.5,2.3-0.7,3.1-1c7.2-3.2,7-3.2,5.7-11.3c-6.8-44-7.6-87.9,5.1-131
					c10.2-35,27.6-65.9,55.4-90.1C235,182.4,241.8,178.5,248.6,173.7z M185,366.8c-0.1,11.3,0.1,11.5,10.4,11.5
					c27.8,0,55.6,0,83.4,0c1.6,0,3.6,0.4,4.7-0.3c1.9-1.4,4.8-3.8,4.6-5.3c-0.3-2.2-3-4.3-5-5.9c-0.9-0.7-2.7-0.2-4.2-0.2
					c-29.2,0.1-58.4,0.2-87.7,0.2C189.2,366.8,187.1,366.8,185,366.8z M305.8,378.4c8-0.1,10.6-2.6,9.3-7.6
					c-1.5-5.6-6.3-3.9-10.1-4.1c-3.5-0.2-6.6,1.1-6.7,5.1c-0.1,1.8,1.3,4.1,2.7,5.2C302.6,378.1,305.1,378.3,305.8,378.4z"/>
				<path class="st0" d="M298.3,612c8.5-6.4,17.1-12,24.5-18.9c12.2-11.2,14.5-25.3,7.3-40.2c-3-6.2-6.8-12-10.8-17.6
					c-22.6-32.1-8.8-61.7,14.7-78.9c16.7-12.2,36.2-17.2,55.6-22.8c16.2-4.6,32.1-9.7,48.1-15c4.5-1.4,8.5-4.3,12.8-6.3
					c1-0.5,2.4-0.2,3.7-0.4c-0.3,1.2-0.3,3-1.1,3.5c-4.7,3.4-9.3,7.6-14.7,9.4c-20.2,6.8-40.7,12.9-61.1,19.2
					c-15.8,4.9-31.4,10.2-44.1,21.3c-16.7,14.4-18.3,33.5-2.6,49c9.6,9.5,21.1,17.1,32,25.4c9.6,7.3,19.8,13.8,28.8,21.7
					c15.9,14,16.7,28.9,3.8,45.7c-9.3,12.2-19.6,20.4-36.6,16.7c-18.1-4-36.5-6.7-54.7-10C301.9,613.7,300,612.6,298.3,612z"/>
				<path class="st0" d="M228.6,93.6c25.8-16.8,54.7-28.7,85.3-36.1c56.3-13.7,112.1-10.7,167,6.8c14.7,4.7,11.4,1.3,10.9,15.6
					c-5.6,3.9-10.7,7.4-16.7,11.6c-74-23.9-147.3-20.7-217,16.7C248,103.2,238.4,98.4,228.6,93.6z"/>
				<path class="st0" d="M397.4,135.8c21.2-0.5,38.7,16.3,39.2,37.8c0.5,20.5-16.8,38.6-37.5,39.1c-21.6,0.6-39.2-16.2-39.8-37.8
					C358.6,153.2,375.1,136.2,397.4,135.8z"/>
				<path class="st0" d="M255.8,595.3c-2.7-1.2-4.5-2-6.8-3.1c3.4-3.6,6.4-7.1,9.8-10.4c19.3-19.1,25.4-41.7,18.5-67.9
					c-2.5-9.6-3.9-19.4-1.6-29.4c2.3-10,6.9-18.5,14.9-25c0.7-0.6,1.7-0.9,3.6-1.9c-0.9,1.9-1.1,2.9-1.7,3.6
					c-10.5,13.9-12.3,29.3-7.8,45.8c1.7,6.3,3.5,12.6,4.7,19c3.6,18.8-2.7,34.9-14.5,49.1C269,582.2,262.2,588.5,255.8,595.3z"/>
				<path class="st0" d="M396.5,624.6c10.1-13.4,23.1-24.1,21.4-42.7c0.6-0.2,1.1-0.4,1.6-0.6c1,1.3,2.9,2.7,2.9,3.9
					c-0.3,5.4,0.2,11.4-2.2,15.9c-4,7.5-9.7,14.2-15.3,20.6C403.2,623.7,399.4,623.7,396.5,624.6z"/>
			</g>
			<g>
				<path class="st0" d="M85.4,530.2c-8.7,4.2-16.7,4.8-24,2c-7.2-2.8-13.4-8.9-18.2-18.4c-5.6-11.1-7.1-21.1-4.3-30.1
					c2.8-8.9,9.7-16.3,20.6-21.8c10.3-5.3,20.1-6.4,29.5-3.4c9.3,3,16.7,9.7,22,20c1.8,3.5,3.1,6.8,3.9,10.2c0.8,3.4,1.1,6.8,1,10.3
					l4.3-0.2l5.3,10.4L99,522.8l-5.9-11.5c5.6-4.3,9.2-8.3,10.8-12c1.6-3.7,1.4-7.6-0.6-11.4c-2.3-4.5-5.9-6.8-10.8-6.9
					c-4.8-0.1-11.5,2-20,6.4c-8.7,4.4-14.4,8.7-17.2,12.8c-2.7,4.1-2.9,8.5-0.5,13.3c2.3,4.3,5.6,7.1,10.1,8.3s9.5,0.6,14.9-1.8
					L85.4,530.2z"/>
				<path class="st0" d="M116.3,574.4c-4.1,3.8-6.4,7.1-6.8,9.8c-0.5,2.8,0.7,5.7,3.5,8.7c3.3,3.6,6.5,5.4,9.6,5.5
					c3.1,0.1,6.4-1.6,10.1-5.1l24-22.2c2.1-1.9,3.1-3.4,3.1-4.3c0-1-0.9-2.3-2.6-4.2l-2.5-2.7l7.5-6.9l22.7,24.5l-7.5,6.9l-2.3-2.4
					c-1.7-1.9-3.1-2.8-4-2.9c-1-0.1-2.4,0.7-4.3,2.5l-25.5,23.7c-5.6,5.2-11.8,7.2-18.5,5.8c-6.7-1.4-13.8-6-21-13.8
					c-6.6-7.2-10.3-14-11-20.6c-0.7-6.6,1.5-12.4,6.8-17.2l25.9-24.1c2-1.9,3-3.3,3-4.3s-0.9-2.4-2.6-4.3l-2.5-2.7l7.5-6.9
					l29.5,31.9l-7.5,6.9l-2.7-2.9c-1.8-1.9-3.1-2.9-4.1-3s-2.5,0.8-4.5,2.7L116.3,574.4z"/>
				<path class="st0" d="M152.7,643l5.3-8.7l3.1,1.9c2,1.2,3.5,1.9,4.4,1.7c1-0.1,2.1-1.3,3.5-3.5l0.2-0.5l20.5-33.6
					c1.4-2.4,2.1-4,1.8-5c-0.2-0.9-1.4-2-3.6-3.4l-3-1.9l5.3-8.7l37,22.6c8,4.9,13.2,9.7,15.5,14.2c2.3,4.6,1.9,9.4-1,14.4
					c-2.1,3.4-5,5.7-8.6,6.8c-3.7,1.1-8,1.1-12.9-0.1c4.7,4.4,7.5,8.7,8.5,12.9c1,4.2,0.3,8.3-2.3,12.5c-3.7,6-8.5,9.1-14.2,9.1
					c-5.8,0.1-13.6-2.9-23.5-8.9L152.7,643z M186.4,651.7l3.9,2.4c3.7,2.3,6.8,3.1,9.4,2.6s4.9-2.7,7.1-6.2c2-3.2,2.6-6.2,1.9-8.8
					c-0.7-2.6-3-5-6.5-7.2l-3.9-2.3L186.4,651.7z M203.2,624.1l3.4,2c3.2,2,6,2.7,8.4,2.3c2.3-0.5,4.3-2.1,6.1-5
					c1.8-2.9,2.3-5.3,1.7-7.4c-0.6-2.1-2.6-4.1-5.8-6.1l-3.7-2.3L203.2,624.1z"/>
				<path class="st0" d="M265,699.8l3.1-9.7l3.1,1c2.6,0.8,4.3,1.2,4.9,1.1c0.6-0.1,1.1-0.6,1.4-1.4c0.2-0.6,0.3-1,0.4-1.5
					c0.1-0.5,0.1-1,0.2-1.5l-0.1-8.1l-18.4-6l-4.3,5.9c-0.7,0.9-1.2,1.6-1.5,2.1s-0.6,1-0.7,1.4c-0.2,0.6,0.1,1.2,0.8,1.8
					s1.9,1.1,3.4,1.6l3.4,1.1l-3.1,9.7l-30.7-10l3.1-9.7l2.6,0.8c1.7,0.6,3.4,0.5,4.9-0.2c1.5-0.7,3.1-2.2,4.8-4.4l34.9-46l24.8,8
					l-0.7,56.8c0,3.8,0.3,6.1,1,7.2c0.6,1,2,1.9,4,2.5l3.6,1.1l-3.1,9.7L265,699.8z M277.9,668.7l0.5-22.8l-12.6,18.8L277.9,668.7z"
					/>
				<path class="st0" d="M378.9,658.2c-3.9,0.1-6.9,1.5-8.9,4.3s-3,6.7-2.8,11.8v0.3l-10.6,0.3l-0.8-27.3l75.8-2.3l0.8,27.3
					l-10.5,0.3v-0.3c-0.2-5.1-1.4-8.9-3.5-11.5c-2.2-2.7-5.3-3.9-9.3-3.8l-3.1,0.1l1.4,44.4c0.1,2.7,0.5,4.5,1.3,5.2
					c0.7,0.6,2.4,1,5,0.9l6-0.2l0.3,10.2l-47.4,1.4l-0.3-10.2l5.6-0.2c2.4-0.1,4-0.4,4.7-1c0.7-0.6,1-2.4,1-5.4l-1.4-44.4
					L378.9,658.2z"/>
				<path class="st0" d="M442.7,680.3c-3.4-11.4-2.5-21.5,2.7-30.1c5.2-8.6,14-14.8,26.6-18.5c12.5-3.7,23.2-3.4,32.3,1
					c9,4.4,15.2,12.3,18.6,23.7c3.4,11.4,2.5,21.4-2.7,30c-5.2,8.6-14.1,14.7-26.6,18.5c-12.5,3.7-23.2,3.4-32.2-1
					C452.3,699.5,446.1,691.7,442.7,680.3z M475,642.2c-4.7,1.4-7.4,4.4-8.4,9.2c-0.9,4.7,0,11.7,2.7,20.8
					c2.7,9.3,5.8,15.6,9.1,19.2c3.3,3.5,7.3,4.6,11.9,3.2c4.7-1.4,7.5-4.4,8.4-9.2c0.9-4.7,0-11.7-2.7-20.8
					c-2.7-9.2-5.8-15.5-9.1-19.1C483.7,642,479.7,640.9,475,642.2z"/>
				<path class="st0" d="M565.5,645.5c2.9,4.7,5.7,7.6,8.4,8.6c2.7,1,5.7,0.4,9.3-1.8c4.2-2.6,6.6-5.4,7.2-8.4c0.6-3-0.3-6.6-3-10.9
					l-17.2-27.8c-1.5-2.4-2.7-3.7-3.6-3.9c-1-0.2-2.5,0.4-4.6,1.8l-3.1,1.9l-5.4-8.6l28.4-17.6l5.4,8.6l-2.8,1.8
					c-2.2,1.3-3.4,2.4-3.6,3.4s0.2,2.5,1.6,4.7l18.4,29.5c4,6.5,4.7,13,2.2,19.3c-2.6,6.4-8.5,12.3-17.6,18
					c-8.3,5.2-15.8,7.4-22.4,6.9c-6.6-0.6-11.8-3.9-15.6-10l-18.6-30c-1.4-2.3-2.7-3.5-3.6-3.8c-1-0.2-2.6,0.4-4.7,1.7l-3.1,1.9
					l-5.4-8.6l36.9-22.9l5.4,8.6l-3.4,2.1c-2.2,1.4-3.5,2.5-3.7,3.5c-0.2,1,0.3,2.6,1.8,4.9L565.5,645.5z"/>
				<path class="st0" d="M633.4,605.9l-29.2-26.4c-2.1-1.9-3.6-2.7-4.5-2.7c-1,0.1-2.3,1-4,3l-2.4,2.7l-7.6-6.8l33.2-36.9
					c5.9-6.5,11.3-10.4,16.5-11.6c5.1-1.2,9.9,0.2,14.3,4.3c3,2.7,4.7,6,4.9,9.8c0.2,3.9-0.9,7.9-3.4,12.2c3.7-3.2,7.1-4.7,10-4.3
					c3,0.3,7.6,3.4,13.9,9.1c1.9,1.8,3.4,2.7,4.4,3.1c1,0.3,1.9,0.2,2.6-0.6c0.6-0.7,0.7-1.7,0.1-2.8c-0.6-1.2-1.8-2.6-3.6-4.3
					c-0.2-0.2-0.5-0.4-1-0.8c-0.4-0.3-0.7-0.6-1-0.8l4.9-5.4c0.2,0.2,0.6,0.5,1.1,1c0.5,0.4,0.9,0.7,1.1,1c5,4.5,7.6,8.8,8,12.9
					c0.4,4.1-1.4,8.4-5.6,13c-4.3,4.8-8.6,7.5-12.6,7.9c-4,0.4-8.2-1.4-12.6-5.4l-4.5-4c-3.6-3.2-6.3-4.8-8.1-4.7
					c-1.9,0.1-4.1,1.6-6.8,4.6l-4.3,4.7l12,10.9c2.1,1.9,3.6,2.7,4.6,2.7c1-0.1,2.3-1,3.9-2.9l2.7-3.1l7.6,6.8L639,624l-7.6-6.8
					l2.4-2.7c1.7-1.9,2.5-3.3,2.5-4.3C636.5,609.2,635.5,607.9,633.4,605.9z M630,571.1l4.2-4.7c3-3.3,4.5-6.1,4.7-8.4
					c0.2-2.3-1-4.5-3.5-6.8c-2.7-2.4-5.2-3.5-7.3-3.3s-4.7,1.9-7.5,5.1l-4.7,5.2L630,571.1z"/>
				<path class="st0" d="M682.2,532.7l4.9-9.2c5.7,1.1,10.9,0.6,15.5-1.4s8.2-5.4,10.8-10.1c1.5-2.9,2.2-5.5,1.9-7.9
					c-0.3-2.4-1.4-4.1-3.4-5.2c-3.1-1.6-7.6,0.7-13.7,7.2c-1.9,2.1-3.5,3.7-4.7,4.8c-3.8,3.8-6.8,6.6-9,8.5
					c-2.3,1.9-4.1,3.2-5.5,3.9c-3.3,1.5-6.4,2.3-9.4,2.3c-3,0-6-0.8-8.9-2.4c-6.4-3.4-10.2-8.5-11.7-15.4c-1.4-6.8,0-14.2,4.2-21.9
					c2.1-3.9,4.5-7.4,7.1-10.5c2.6-3,5.6-5.7,8.9-8l-2.3-3.4l4.9-9.1l22.1,11.8l-5.7,10.7c-5.1-1.4-9.5-1.2-13.2,0.6
					c-3.8,1.7-6.9,5-9.5,9.8c-1.5,2.8-2.1,5.6-1.8,8s1.4,4.3,3.3,5.3c2.8,1.5,6.8-0.9,12.1-7.1c1.3-1.5,2.3-2.7,3.1-3.5
					c7.5-8.6,14-14,19.5-16.1c5.5-2.2,11.1-1.7,16.8,1.4c6.4,3.5,10.2,8.6,11.4,15.5c1.2,6.9-0.4,14.5-4.8,22.7
					c-2,3.8-4.3,7.2-7.1,10.2c-2.7,3.1-5.9,5.8-9.4,8.3l2.3,4.3l-4.7,8.7L682.2,532.7z"/>
			</g>
		</g>
	</g>
</g>
</svg>
