<?xml version="1.0" encoding="utf-8"?>
<!-- Generator: Adobe Illustrator 24.1.2, SVG Export Plug-In . SVG Version: 6.00 Build 0)  -->
<svg version="1.1" id="Capa_1" xmlns="http://www.w3.org/2000/svg" xmlns:xlink="http://www.w3.org/1999/xlink" x="0px" y="0px"
	 viewBox="0 0 768 768" style="enable-background:new 0 0 768 768;" xml:space="preserve">
<style type="text/css">
	.st0{fill:#F2AD00;}
</style>
<g>
	
		<image style="overflow:visible;opacity:0.4;enable-background:new    ;" width="915" height="887" xlink:href="D6FB51CF.png"  transform="matrix(0.8447 0 0 0.8447 -2.454 9.3719)">
	</image>
	<g>
		<g>
			<g>
				<path class="st0" d="M468.6,625.5c10.3-20.8,7.3-37.3-9.6-54.1c-13.1-13-29.3-21.5-45-30.6c-6.7-3.9-13.4-7.9-20.1-11.7
					c0.1-0.5,0.2-1,0.3-1.5c1.7,0,3.3,0,5,0c47.1,0,94,0,141.1,0c4.4,0,9.5,0.9,10.2-5.6c0.5-4.4-3-6.5-10.1-6.5
					c-51.1,0-102.2-0.1-153.3-0.1c-1.1,0-2.4-0.3-3.3,0.2c-6.4,3.8-9.6-1.1-13.2-4.7c-7.9-8.1-13.9-17-10.9-29.3
					c2.1-8.6,7.7-15,15.3-18.2c12.8-5.4,26-9.5,39.3-13.8c17.3-5.6,35.2-9.6,50.6-19.9c5.2-3.5,10.1-7.8,13.9-12.6
					c9.5-12,6.5-25.9-6.8-33.5c-11.7-6.6-24.6-9.6-37.7-11c-18.8-1.9-37.8-3.1-56.7-4.6c-1.8-0.2-3.5-0.3-5.3-1
					c26.5-12.2,53.9-21.3,83.3-27c0,5.2,0,9.5,0,14.9c2.8-3.7,3.8-114,2-127.6c2.4-4,4.2-7,6.2-10.3c0.7,0.8,1.6,2.2,2.5,3.5
					c1.9-0.6,3.8-1.2,6.1-1.9c0-17.2,0-35.1,0-52.2c1.4-3.2,2.4-5.8,3.6-8.5c0.7-1.5,1.4-3,2-4.5c0.8,1.4,1.4,3,2.3,4.4
					c0.3,0.5,0.6,0.8,1.6,2.4c0.8-1.9,1.8-3.2,1.8-4.4c-0.1-9.8-0.4-19.7-0.6-29.5c0-1.1,0.5-3.1,1-3.2c4.6-0.8,3.7-4.3,3.7-7.3
					c-0.1-4.6-0.1-9.3-0.2-13.9c-0.1-2.7-0.9-5.4,2.8-6.9c1.1-0.4,1.5-4,1.4-6c-0.5-5,1.4-8.2,6.1-9.9c5-1.9,12-1.1,14.7,2
					c0.8,0.9,1.4,2.3,1.4,3.5c0.8,9.6,3.5,19.1,2.5,28.9c-0.3,3.5-1.3,8,4.5,9c0.5,0.1,0.8,2.5,0.8,3.9c0.2,9.6,0.2,19.3,0.3,29
					c0,1.7,0.8,3.3,2.4,4.8c0.4-2.2,0.8-4.4,1.3-6.6c0.4-0.2,0.8-0.3,1.2-0.4c1.6,4.1,3.3,8.3,4.9,12.3c0.3-0.2,0.6-0.3,0.9-0.4
					c0,9.3-0.1,18.5,0,27.8c0.2,9-0.7,18.2,1.2,28.6c4.5-5,7-6,7.9,0.3c0.1,0.9,2.1,2.4,3.1,2.4c5.5-0.3,5.7,2.8,5.7,7.1
					c-0.1,33.8,0,67.7,0.1,101.4c0,2,0,4,0,6.4c7.2-0.9,13.7-1.9,20.9-2.8c0,12.1,0,23.7,0,35.8c3,0,5.4,0,8.4,0c0-12.2,0-24.4,0-37
					c16.6-3.5,32.9-8.6,49.6-0.6c2.9,1.4,3.6,2.8,3.6,5.7c-0.2,10.6-0.1,21.1-0.1,32c2.6,0,4.9,0,7.9,0c0-7.4,0-14.7,0-22.6
					c6.1,0.8,11.6,1.5,17.7,2.4c0-10.8,0.6-21.3-0.1-31.8c-3.3-49.9-18.1-96.2-45.9-138c-21.3-31.9-47.4-59-80.2-79.4
					c-2.9-1.8-4.3-3.8-4-7.2c0.2-2-0.1-4.1-0.2-6.2c-0.2-9-4-15.7-12.2-19.8c-2.1-1.1-4.2-2.3-6.6-3.5c0.2-2.9,0.3-5.7,0.5-8.8
					c86.7,34.7,185.2,144.5,177.4,294.5C679.6,493.6,566.5,603.8,468.6,625.5z M427,459.9c1.9,0.3,2.4,0.5,2.9,0.5
					c55.2,0,110.3,0,165.5,0c2,0,4.5,0.3,6-0.7c2.1-1.4,4.9-3.7,4.9-5.6c-0.1-2-2.8-4.5-4.9-5.7c-1.7-1-4.3-0.6-6.6-0.6
					c-13.3,0-26.8,0.2-40.1,0.2c-33.5,0.1-66.9,0.1-100.3,0.3C444.1,448.3,435.4,452.5,427,459.9z M478.9,236.8
					c0.7,0.1,1.4,0.3,2.1,0.3c0,2.4,0,4.7,0,7.1c0,35.3,0.1,70.6-0.1,105.9c0,4.3,1,6.4,5.5,4.6c0-43.7,0-87,0-130.1
					c-7.7-2.9-3.9,6.8-7.9,6.9c-1.7-1.9-3-3.2-4.2-4.6c-0.8,1.6-2.2,3.3-2.2,4.9c-0.3,38.9-0.3,77.7-0.3,116.5
					c0,2.2,0.3,4.3,0.3,6.5c5.8,1.9,6.2-1.4,6.2-5.3c-0.1-35.6-0.1-71.4-0.1-107C478.1,240.7,478.7,238.7,478.9,236.8z M587.7,415.1
					c12.8,0,25.6-0.1,38.4,0c4.4,0,8.4-1,8.3-6c-0.1-4.7-3.9-6.3-8.3-6.3c-26,0.1-52,0.1-78,0.2c-1.1,0-2.4-0.1-3.2,0.4
					c-1.7,1.3-4,2.7-4.3,4.5c-0.3,1.7,0.9,4.4,2.4,5.6c1.5,1.2,4.1,1.5,6.3,1.5C562,415.1,574.8,415,587.7,415.1z M494.1,213.6
					c0-16.6,0-32.4,0-49.2c-2.2,0.6-4.7,0.8-4.9,1.4c-1.9,7.5-4.5,2.7-6.6,0.3c-3.2,3.2-4.5,42.4-1.1,50.9c1.6-1.5,3.4-3.4,3.5-5.2
					c0.3-5.6,0-11.2,0-16.7c0-5.7,0.1-11.5,0.3-17.2c0.1-0.9,1.2-1.9,1.9-2.8c0.6,0.9,1.5,1.9,1.7,2.9c0.3,1.6,0.2,3.3,0.2,5
					c0,10.1,0,20.4,0,30.8C491.2,213.8,492.6,213.7,494.1,213.6z M490.5,155.3c0.5,0.4,0.9,0.9,1.4,1.4c1.2-1.3,3.5-2.4,3.5-3.8
					c0.3-8,0.2-16.1,0.2-24.2c-4.2-0.8-5.2,1.4-5.2,4.4C490.5,140.6,490.5,147.9,490.5,155.3z M530.1,411c0-0.8,0.1-1.7,0.1-2.5
					c-2.4-1.8-4.6-4.6-7.1-5.1c-3.6-0.7-6.9,2.1-6.1,5.9c0.6,2.5,3.7,5.6,6.3,6.2C525.2,415.8,527.9,412.6,530.1,411z M565.2,528.6
					c0.8,0,1.8,0,2.6,0c1.6-2.3,4.8-4.9,4.4-6.8c-0.5-2.5-3.8-4.4-5.9-6.6c-2,2-5.6,4-5.7,6.1C560.5,523.7,563.6,526.2,565.2,528.6z
					 M493.9,119.1c0.5,0,1,0.1,1.5,0.1c0-5.8,0-11.6,0-17.1C492.5,103.5,491.4,111.8,493.9,119.1z"/>
				<path class="st0" d="M241.9,163.4c-13.3-4.7-25.8-4.3-37.8,2.5c-12.1,7-16.9,19.2-20.4,32c-0.5,0.2-1.1,0.3-1.6,0.4
					c-1.5-2-3.3-4-4.4-6.2c-5.9-12-2.4-28.2,9.1-38.5c13.3-11.9,28.9-16.9,47.9-13.3c-2.5-2.1-4.6-3.5-6.3-5.3
					c-3.1-3.4-6.8-6.5-9-10.5c-7.2-13.2-17.5-22.5-31.4-27.9c-0.7-0.3-1.2-0.8-1.9-1.2c21.4-12.8,62.9-1.4,69.4,33.9
					c10.1-19,23.8-31.8,46-31c11.1,0.4,21.5,3.4,29.6,12.2c-37.7,11.6-48.1,17.5-56.3,32.1c18.8-6.2,36.5-6.8,48.7,11.5
					c8.5,12.8,5.2,33.4-6.3,46c-3-15.5-7.3-30.1-22.9-38.8c9.5,20.7,10.1,40-4.1,58.1c-7.5,9.5-17.6,14.3-31,14.7
					c11.7-12.1,17.3-25.3,16-41c-0.7-7.7-3.3-14.6-10-20.9c5.1,21.8,0.9,39.9-16.4,53.4c-8,6.3-17.2,9-28.4,6.1
					c17.1-13.9,26.9-30.2,24.9-52.5c-39.6,22.4-76.6,101.4-72.1,154.1c11,0,21.9-0.3,32.8,0.1c51.4,1.7,100.7,13.3,147.6,34.5
					c15.5,12.4,35.4,10.8,53,16.7c4.7,1.6,9.7,2.8,14.2,4.9c7.1,3.4,7.5,7.8,0.7,11.5c-6.3,3.5-13.2,6.2-20.1,8
					c-34,9.2-68.6,12.4-103.7,12.1c-34.2-0.3-68.4,0-102.6,0.1c-1.7,0-3.7-0.6-4.9,0.2c-2.3,1.4-5.5,3.5-5.6,5.5
					c-0.1,2.1,2.6,4.8,4.7,6.4c1.4,1,4,0.4,6,0.4c36.8,0,73.6-0.1,110.4-0.2c1,0,2.1,0.1,4.7,0.3c-22.7,9.6-41.2,22-51,44.7
					c-3.1,0-6.5,0-9.8,0c-24.9,0-49.8,0-74.8,0c-2,0-4.6-0.5-6,0.4c-2.2,1.4-5,4.1-4.9,6.2c0,1.9,3.1,4.6,5.4,5.5
					c2.4,1,5.5,0.5,8.3,0.5c24.2,0,48.3,0.1,72.5,0.1c2,0,4.1,0,5.3,0c1.9,15,3.8,29.1,5.8,44c-5.1,0-10.6,0.1-16,0
					c-4.5-0.1-8.2,1.4-8.1,6.3c0.1,4.4,3.6,6.1,7.9,6.1c5.3,0,10.7,0,16.7,0c-2.3,22-16.7,35.6-31.5,49
					C185.2,566.9,148.1,530,121,483.3c-33.5-57.9-46-119.9-37.8-186.2c8.7-70.7,38.3-131.4,89.3-181.4c9.7-9.5,10.7-9.6,22.5-2.6
					c5,3,9,7.5,14.1,12c-15.5,7.5-28,16.6-36.8,29.9c-10,15-19.9,30.1-28.6,45.9c-22.6,41.3-34.3,85.6-34,132.9c0,2.8,0,5.6,0,9
					c11.2-2,21.8-4,32.8-6c0,9.9,0,19.1,0,29.1c-10,0-20.1,0-31.2,0c0.7,4.6,1.3,8.3,1.9,12.5c10.1,0,19.9,0,29.6,0
					c2.1,15,4.1,29.6,6.2,44.5c1.6-0.5,2.4-0.8,3.2-1.1c7.5-3.4,7.3-3.4,6-11.8c-7.2-46.2-7.9-92.2,5.3-137.5
					c10.7-36.7,29-69.2,58.1-94.5C227.6,172.4,234.7,168.3,241.9,163.4z M175.2,365.9c-0.1,11.9,0.1,12.1,10.9,12.1
					c29.1,0,58.4,0,87.5,0c1.7,0,3.8,0.4,4.9-0.3c2-1.4,5.1-4,4.8-5.6c-0.3-2.3-3.1-4.5-5.2-6.2c-0.9-0.8-2.9-0.3-4.4-0.3
					c-30.7,0.1-61.3,0.2-92,0.2C179.6,365.9,177.4,365.9,175.2,365.9z M301.9,378.2c8.4-0.1,11.2-2.7,9.7-8
					c-1.6-5.8-6.6-4.1-10.6-4.3c-3.6-0.2-6.9,1.2-7,5.3c-0.1,1.9,1.4,4.3,2.9,5.4C298.6,377.8,301.2,378,301.9,378.2z"/>
				<path class="st0" d="M294,623.2c8.9-6.8,17.9-12.6,25.7-19.9c12.8-11.7,15.2-26.5,7.7-42.2c-3.1-6.5-7.2-12.6-11.3-18.5
					c-23.7-33.7-9.2-64.7,15.4-82.8c17.5-12.8,38-18.1,58.4-23.9c17-4.8,33.7-10.2,50.5-15.7c4.7-1.5,9-4.5,13.4-6.6
					c1.1-0.5,2.5-0.3,3.9-0.4c-0.3,1.3-0.3,3.1-1.2,3.7c-5,3.5-9.7,8-15.4,9.9c-21.2,7.2-42.7,13.5-64.1,20.2
					c-16.6,5.2-32.9,10.7-46.3,22.3c-17.6,15.1-19.2,35.1-2.7,51.4c10.1,10,22.1,17.9,33.5,26.6c10.1,7.7,20.8,14.4,30.2,22.7
					c16.7,14.7,17.5,30.3,4,48c-9.8,12.8-20.6,21.5-38.4,17.6c-19-4.2-38.3-7-57.4-10.5C297.8,625,295.8,623.9,294,623.2z"/>
				<path class="st0" d="M220.9,79.2c27.1-17.7,57.4-30.2,89.5-37.9c59.1-14.4,117.6-11.2,175.3,7.1c15.4,4.9,12,1.4,11.4,16.4
					c-5.9,4.1-11.2,7.8-17.5,12.2C402,51.9,325,55.2,251.9,94.5C241.3,89.4,231.2,84.3,220.9,79.2z"/>
				<path class="st0" d="M398,123.5c22.2-0.5,40.6,17.1,41.1,39.6c0.5,21.5-17.7,40.5-39.4,41.1c-22.6,0.6-41.1-17-41.8-39.6
					C357.3,141.8,374.7,124,398,123.5z"/>
				<path class="st0" d="M249.4,605.7c-2.9-1.3-4.7-2.1-7.2-3.2c3.5-3.8,6.8-7.4,10.3-10.9c20.3-20,26.7-43.8,19.4-71.3
					c-2.6-10.1-4.1-20.4-1.7-30.8s7.3-19.4,15.6-26.3c0.8-0.6,1.8-0.9,3.8-1.9c-0.9,2-1.2,3-1.8,3.8c-11,14.6-12.9,30.7-8.2,48.1
					c1.8,6.6,3.6,13.3,5,19.9c3.8,19.7-2.8,36.7-15.2,51.5C263.3,592,256.2,598.6,249.4,605.7z"/>
				<path class="st0" d="M397.1,636.5c10.6-14,24.2-25.3,22.5-44.9c0.6-0.2,1.2-0.4,1.7-0.6c1.1,1.4,3,2.8,3,4.1
					c-0.3,5.7,0.3,12-2.3,16.7c-4.2,7.9-10.1,14.9-16,21.6C404.2,635.6,400.1,635.6,397.1,636.5z"/>
			</g>
			<g>
				<path class="st0" d="M70.6,537.4c-9.1,4.4-17.6,5.1-25.2,2.1s-14-9.4-19.1-19.3c-5.9-11.7-7.4-22.1-4.5-31.6
					c3-9.4,10.1-17.1,21.6-22.9c10.8-5.6,21.1-6.8,30.9-3.5c9.8,3.1,17.5,10.1,23.1,21c1.9,3.6,3.2,7.2,4.1,10.7
					c0.8,3.5,1.2,7.2,1,10.8l4.6-0.2l5.6,10.9L85,529.6l-6.2-12.1c5.8-4.5,9.6-8.7,11.3-12.6c1.7-3.9,1.5-7.9-0.6-12
					c-2.4-4.7-6.2-7.2-11.3-7.3c-5.1-0.1-12.1,2.1-20.9,6.7c-9.1,4.6-15.1,9.1-18.1,13.4c-2.9,4.3-3,9-0.5,13.9
					c2.4,4.6,5.8,7.4,10.6,8.7c4.7,1.3,10,0.6,15.6-1.9L70.6,537.4z"/>
				<path class="st0" d="M103.1,583.8c-4.3,4-6.7,7.4-7.2,10.3c-0.5,3,0.8,6,3.7,9.1c3.5,3.8,6.8,5.7,10.1,5.7
					c3.2,0.1,6.8-1.7,10.6-5.3l25.2-23.3c2.2-2,3.3-3.5,3.2-4.5c0-1-0.9-2.4-2.7-4.4l-2.6-2.8l7.9-7.3l23.8,25.7l-7.9,7.3l-2.4-2.5
					c-1.8-1.9-3.2-3-4.2-3c-1-0.1-2.5,0.8-4.5,2.6l-26.8,24.8c-5.9,5.5-12.4,7.5-19.4,6.1c-7-1.4-14.4-6.3-22-14.5
					c-6.9-7.5-10.8-14.7-11.6-21.6c-0.8-6.9,1.6-13,7.2-18.1l27.2-25.3c2.1-1.9,3.1-3.5,3.1-4.5s-0.9-2.5-2.7-4.6l-2.6-2.8l7.9-7.3
					l31,33.5l-7.9,7.3l-2.9-3c-1.9-2-3.3-3-4.3-3.1s-2.6,0.8-4.7,2.8L103.1,583.8z"/>
				<path class="st0" d="M141.3,655.8l5.6-9.1l3.2,1.9c2.1,1.3,3.7,1.9,4.6,1.8c1-0.1,2.2-1.4,3.6-3.7l0.3-0.5l21.5-35.2
					c1.5-2.5,2.2-4.2,1.9-5.2c-0.3-0.9-1.5-2.1-3.8-3.5l-3.1-1.9l5.6-9.1l38.9,23.7c8.4,5.2,13.9,10.1,16.3,15
					c2.4,4.8,2,9.9-1.1,15.1c-2.2,3.5-5.2,6-9,7.2c-3.9,1.2-8.4,1.2-13.5-0.1c4.9,4.6,7.9,9.1,9,13.5c1.1,4.4,0.3,8.7-2.4,13.1
					c-3.9,6.3-8.9,9.5-14.9,9.5c-6.1,0.1-14.3-3-24.7-9.4L141.3,655.8z M176.6,664.9l4.1,2.5c3.9,2.4,7.2,3.3,9.9,2.7
					c2.7-0.6,5.2-2.8,7.4-6.5c2.1-3.4,2.7-6.5,1.9-9.2c-0.8-2.7-3.1-5.2-6.8-7.5l-4.1-2.4L176.6,664.9z M194.3,636l3.5,2.1
					c3.4,2.1,6.3,2.9,8.8,2.4c2.4-0.5,4.6-2.2,6.4-5.2c1.9-3,2.4-5.6,1.8-7.8c-0.7-2.2-2.7-4.3-6.1-6.4l-3.9-2.4L194.3,636z"/>
				<path class="st0" d="M259.2,715.4l3.3-10.2l3.2,1c2.7,0.8,4.5,1.3,5.2,1.2c0.7-0.1,1.2-0.6,1.4-1.4c0.2-0.6,0.3-1.1,0.4-1.6
					c0.1-0.5,0.1-1.1,0.2-1.6l-0.1-8.5l-19.3-6.3l-4.5,6.2c-0.8,0.9-1.3,1.7-1.6,2.2c-0.3,0.5-0.6,1.1-0.8,1.5
					c-0.2,0.6,0.1,1.3,0.8,1.9c0.8,0.6,1.9,1.2,3.5,1.7l3.5,1.2l-3.3,10.2L219,702.3l3.3-10.2l2.7,0.8c1.8,0.6,3.5,0.5,5.2-0.3
					c1.6-0.8,3.3-2.3,5.1-4.6l36.6-48.2l26,8.4l-0.8,59.6c0,4,0.3,6.4,1,7.5c0.7,1.1,2.1,1.9,4.2,2.6l3.8,1.2l-3.3,10.2L259.2,715.4
					z M272.7,682.8l0.5-23.9L260,678.6L272.7,682.8z"/>
				<path class="st0" d="M378.7,671.7c-4.1,0.1-7.3,1.6-9.4,4.5c-2.1,2.9-3.1,7-3,12.3v0.3l-11.2,0.3l-0.8-28.6l79.6-2.4l0.8,28.6
					l-11.1,0.3v-0.3c-0.2-5.3-1.4-9.4-3.7-12.1c-2.3-2.8-5.6-4.1-9.7-4l-3.3,0.1l1.4,46.5c0.1,2.9,0.5,4.7,1.4,5.4
					c0.8,0.7,2.5,1,5.2,0.9l6.3-0.2l0.3,10.7l-49.8,1.5l-0.3-10.7l5.9-0.2c2.5-0.1,4.2-0.4,5-1.1c0.8-0.6,1.1-2.5,1-5.7l-1.4-46.5
					L378.7,671.7z"/>
				<path class="st0" d="M445.6,694.9c-3.5-12-2.6-22.6,2.8-31.6s14.7-15.5,27.9-19.4c13.1-3.9,24.3-3.5,33.9,1.1
					c9.5,4.6,16,12.9,19.5,24.9c3.5,12,2.6,22.5-2.8,31.5c-5.4,9-14.8,15.5-28,19.4c-13.1,3.9-24.3,3.5-33.8-1.1
					C455.6,715.1,449.1,706.8,445.6,694.9z M479.5,655c-4.9,1.4-7.8,4.6-8.8,9.6c-0.9,5,0,12.2,2.8,21.8c2.9,9.7,6.1,16.4,9.5,20.1
					c3.5,3.6,7.7,4.8,12.5,3.4c4.9-1.4,7.9-4.6,8.8-9.6c0.9-5,0-12.2-2.9-21.8c-2.9-9.6-6.1-16.3-9.5-20
					C488.6,654.7,484.4,653.5,479.5,655z"/>
				<path class="st0" d="M574.5,658.4c3,5,6,7.9,8.8,9c2.8,1,6,0.4,9.7-1.9c4.4-2.7,6.9-5.7,7.6-8.8c0.7-3.1-0.3-6.9-3.1-11.5
					l-18.1-29.1c-1.6-2.5-2.9-3.9-3.8-4.1c-1-0.2-2.6,0.4-4.8,1.9l-3.3,2l-5.7-9l29.8-18.5l5.7,9l-3,1.9c-2.3,1.4-3.5,2.5-3.8,3.5
					c-0.3,1,0.3,2.6,1.7,4.9l19.3,31c4.2,6.8,5,13.6,2.3,20.3c-2.7,6.7-8.9,12.9-18.5,18.8c-8.7,5.4-16.6,7.8-23.5,7.3
					c-6.9-0.6-12.4-4.1-16.4-10.5l-19.5-31.5c-1.5-2.4-2.8-3.7-3.8-4c-1-0.2-2.7,0.4-5,1.8l-3.3,2l-5.7-9l38.8-24l5.7,9l-3.5,2.2
					c-2.3,1.4-3.6,2.6-3.9,3.6s0.3,2.7,1.9,5.2L574.5,658.4z"/>
				<path class="st0" d="M645.7,616.9L615,589.2c-2.2-1.9-3.8-2.9-4.7-2.8c-1,0.1-2.4,1.1-4.2,3.1l-2.5,2.8l-7.9-7.2l34.9-38.7
					c6.2-6.8,11.9-10.9,17.3-12.2c5.3-1.3,10.4,0.2,15,4.5c3.1,2.9,4.9,6.3,5.2,10.3c0.3,4.1-0.9,8.3-3.5,12.8
					c3.9-3.4,7.4-4.9,10.5-4.6c3.1,0.3,7.9,3.5,14.6,9.5c2,1.9,3.5,2.9,4.6,3.3c1.1,0.3,1.9,0.2,2.7-0.7c0.7-0.8,0.8-1.8,0.1-3
					c-0.6-1.3-1.9-2.7-3.8-4.5c-0.2-0.2-0.5-0.4-1-0.8c-0.4-0.3-0.8-0.7-1-0.8l5.2-5.7c0.3,0.3,0.6,0.5,1.2,1c0.5,0.4,0.9,0.8,1.2,1
					c5.2,4.7,8,9.2,8.4,13.5s-1.5,8.8-5.9,13.6c-4.6,5.1-9,7.9-13.3,8.3c-4.2,0.4-8.6-1.4-13.3-5.7l-4.7-4.2c-3.8-3.4-6.6-5.1-8.5-5
					c-1.9,0.1-4.3,1.7-7.1,4.8l-4.6,5l12.6,11.4c2.2,1.9,3.8,2.9,4.8,2.8c1-0.1,2.4-1.1,4.1-3l2.9-3.2l7.9,7.2l-30.5,33.8l-7.9-7.2
					l2.5-2.8c1.8-1.9,2.6-3.5,2.6-4.5C649,620.3,647.9,618.9,645.7,616.9z M642.1,580.3l4.4-4.9c3.1-3.5,4.7-6.4,4.9-8.8
					c0.2-2.4-1-4.7-3.6-7.1c-2.9-2.5-5.4-3.7-7.7-3.5c-2.3,0.3-5,2-7.9,5.3l-5,5.5L642.1,580.3z"/>
				<path class="st0" d="M697,540l5.2-9.6c6,1.2,11.4,0.7,16.3-1.4s8.6-5.7,11.3-10.6c1.6-3,2.3-5.7,1.9-8.3
					c-0.3-2.5-1.5-4.3-3.5-5.4c-3.2-1.7-8,0.8-14.4,7.5c-2,2.2-3.7,3.9-4.9,5.1c-4,4-7.1,6.9-9.5,9c-2.4,2-4.3,3.4-5.7,4.1
					c-3.5,1.6-6.8,2.4-9.9,2.4s-6.3-0.8-9.4-2.5c-6.7-3.5-10.7-9-12.2-16.1c-1.4-7.2,0-14.9,4.4-23c2.2-4.1,4.7-7.8,7.4-11
					c2.7-3.1,5.8-6,9.3-8.4l-2.4-3.5l5.2-9.5l23.1,12.4l-6,11.2c-5.3-1.4-10-1.3-13.9,0.6c-4,1.8-7.3,5.2-10,10.3
					c-1.6,3-2.2,5.8-1.9,8.4c0.3,2.6,1.5,4.5,3.5,5.6c3,1.6,7.2-0.9,12.7-7.4c1.4-1.6,2.4-2.9,3.2-3.7c7.9-9,14.7-14.7,20.4-16.9
					c5.7-2.3,11.7-1.8,17.7,1.4c6.8,3.6,10.7,9,12,16.2c1.3,7.3-0.4,15.2-5.1,23.8c-2.1,4-4.6,7.5-7.4,10.7
					c-2.9,3.2-6.2,6.1-9.9,8.7l2.4,4.5l-4.9,9.1L697,540z"/>
			</g>
		</g>
	</g>
</g>
</svg>
