<?xml version="1.0" encoding="utf-8"?>
<!-- Generator: Adobe Illustrator 24.1.2, SVG Export Plug-In . SVG Version: 6.00 Build 0)  -->
<svg version="1.1" id="Capa_1" xmlns="http://www.w3.org/2000/svg" xmlns:xlink="http://www.w3.org/1999/xlink" x="0px" y="0px"
	 viewBox="0 0 768 768" style="enable-background:new 0 0 768 768;" xml:space="preserve">
<style type="text/css">
	.st0{fill:#FFBC00;}
	.st1{fill:#390B00;}
</style>
<g>
	
		<image style="overflow:visible;opacity:0.5;enable-background:new    ;" width="1035" height="1034" xlink:href="D6FB51CD.png"  transform="matrix(0.7271 0 0 0.7271 7.4545 8.2337)">
	</image>
	<g>
		<circle class="st0" cx="383.7" cy="384.3" r="347.4"/>
	</g>
</g>
<g>
	
		<image style="overflow:visible;opacity:0.4;enable-background:new    ;" width="915" height="887" xlink:href="D6FB51CF.png"  transform="matrix(0.7271 0 0 0.7271 48.8991 83.8518)">
	</image>
	<g>
		<g>
			<g>
				<path class="st1" d="M454.3,614.2c8.9-17.9,6.3-32.1-8.3-46.5c-11.3-11.2-25.2-18.5-38.8-26.3c-5.7-3.3-11.6-6.8-17.3-10.1
					c0.1-0.4,0.1-0.9,0.2-1.3c1.5,0,2.8,0,4.3,0c40.5,0,80.9,0,121.4,0c3.8,0,8.2,0.8,8.8-4.8c0.4-3.8-2.6-5.6-8.7-5.6
					c-44,0-88-0.1-132-0.1c-0.9,0-2.1-0.3-2.8,0.1c-5.5,3.3-8.3-0.9-11.3-4.1c-6.8-7-12-14.6-9.4-25.2c1.8-7.4,6.6-12.9,13.2-15.6
					c11-4.7,22.4-8.2,33.8-11.9c14.9-4.8,30.3-8.3,43.6-17.1c4.4-3,8.7-6.7,12-10.8c8.2-10.3,5.6-22.3-5.9-28.9
					c-10-5.7-21.2-8.3-32.4-9.5c-16.2-1.7-32.5-2.7-48.8-4c-1.5-0.1-3-0.3-4.6-0.9c22.8-10.5,46.4-18.3,71.7-23.3
					c0,4.4,0,8.2,0,12.8c2.4-3.2,3.3-98.2,1.7-109.9c2-3.4,3.6-6,5.3-8.9c0.6,0.7,1.4,1.9,2.2,3.1c1.7-0.5,3.3-1,5.2-1.6
					c0-14.8,0-30.2,0-44.9c1.2-2.8,2.1-5,3.1-7.3c0.6-1.3,1.2-2.5,1.7-3.9c0.7,1.2,1.2,2.5,2,3.8c0.2,0.4,0.5,0.7,1.4,2
					c0.7-1.7,1.5-2.8,1.5-3.8c-0.1-8.4-0.4-16.9-0.5-25.4c0-0.9,0.4-2.7,0.9-2.8c4-0.7,3.2-3.7,3.2-6.3c-0.1-4-0.1-8-0.1-12
					c-0.1-2.3-0.8-4.7,2.4-6c0.9-0.4,1.3-3.4,1.2-5.2c-0.4-4.3,1.2-7.1,5.2-8.5c4.3-1.6,10.3-0.9,12.7,1.7c0.7,0.8,1.2,2,1.2,3
					c0.7,8.3,3,16.4,2.2,24.9c-0.3,3.1-1.1,6.9,3.9,7.8c0.4,0.1,0.7,2.2,0.7,3.3c0.1,8.3,0.1,16.7,0.3,24.9c0,1.5,0.7,2.8,2.1,4.1
					c0.4-1.9,0.7-3.8,1.1-5.7c0.4-0.1,0.7-0.3,1-0.4c1.4,3.6,2.8,7.1,4.2,10.6c0.3-0.1,0.5-0.3,0.8-0.4c0,8-0.1,15.9,0,23.9
					c0.1,7.8-0.6,15.6,1,24.6c3.9-4.3,6-5.2,6.8,0.2c0.1,0.8,1.8,2.1,2.7,2.1c4.7-0.3,4.9,2.4,4.9,6.1c-0.1,29.1,0,58.2,0.1,87.3
					c0,1.7,0,3.4,0,5.5c6.2-0.8,11.8-1.6,18-2.4c0,10.4,0,20.4,0,30.8c2.5,0,4.7,0,7.2,0c0-10.5,0-21,0-31.8
					c14.3-3,28.3-7.4,42.7-0.5c2.5,1.2,3.1,2.4,3.1,4.9c-0.1,9.1-0.1,18.2-0.1,27.6c2.3,0,4.2,0,6.8,0c0-6.4,0-12.7,0-19.4
					c5.2,0.7,10,1.3,15.3,2c0-9.3,0.5-18.3-0.1-27.3c-2.8-43-15.6-82.8-39.5-118.8c-18.3-27.5-40.8-50.8-69-68.3
					c-2.5-1.5-3.7-3.3-3.4-6.2c0.1-1.7-0.1-3.5-0.1-5.3c-0.1-7.7-3.4-13.5-10.5-17c-1.8-0.9-3.6-2-5.7-3.1c0.1-2.5,0.3-4.9,0.4-7.6
					c74.6,29.9,159.5,124.4,152.7,253.5C636,500.7,538.6,595.5,454.3,614.2z M418.6,471.7c1.6,0.3,2,0.4,2.5,0.4
					c47.5,0,95,0,142.4,0c1.7,0,3.9,0.2,5.2-0.6c1.8-1.2,4.2-3.2,4.2-4.8c-0.1-1.7-2.4-3.9-4.2-4.9c-1.5-0.9-3.7-0.5-5.7-0.5
					c-11.5,0-23,0.1-34.5,0.1c-28.8,0.1-57.6,0.1-86.3,0.2C433.3,461.7,425.8,465.3,418.6,471.7z M463.3,279.6
					c0.6,0.1,1.2,0.2,1.8,0.3c0,2,0,4.1,0,6.1c0,30.4,0.1,60.8-0.1,91.2c0,3.7,0.9,5.5,4.7,4c0-37.6,0-74.9,0-112
					c-6.6-2.5-3.3,5.8-6.8,6c-1.5-1.6-2.5-2.8-3.6-4c-0.7,1.4-1.9,2.8-1.9,4.2c-0.2,33.4-0.3,66.9-0.3,100.3c0,1.9,0.2,3.7,0.3,5.6
					c5,1.6,5.3-1.2,5.3-4.6c-0.1-30.7-0.1-61.4-0.1-92.1C462.5,282.9,463.1,281.3,463.3,279.6z M556.8,433.1c11.1,0,22-0.1,33.1,0
					c3.8,0,7.2-0.9,7.1-5.2c-0.1-4.1-3.3-5.5-7.1-5.5c-22.4,0.1-44.8,0.1-67.1,0.1c-0.9,0-2.1-0.1-2.8,0.4c-1.5,1.1-3.4,2.3-3.7,3.9
					c-0.3,1.5,0.8,3.8,2.1,4.8c1.3,1,3.5,1.3,5.4,1.3C534.7,433.1,545.8,433,556.8,433.1z M476.4,259.7c0-14.3,0-27.9,0-42.3
					c-1.9,0.5-4.1,0.7-4.2,1.2c-1.6,6.5-3.9,2.3-5.7,0.3c-2.8,2.8-3.9,36.5-0.9,43.8c1.4-1.3,2.9-2.9,3.1-4.5c0.3-4.8,0-9.6,0-14.4
					c0-4.9,0.1-9.9,0.3-14.8c0.1-0.8,1-1.6,1.6-2.4c0.5,0.8,1.3,1.6,1.5,2.5c0.3,1.4,0.1,2.8,0.1,4.3c0,8.7,0,17.5,0,26.5
					C473.8,259.8,475.1,259.7,476.4,259.7z M473.2,209.5c0.4,0.4,0.8,0.8,1.2,1.2c1-1.1,3-2.1,3.1-3.3c0.3-6.9,0.1-13.9,0.1-20.8
					c-3.6-0.7-4.4,1.2-4.4,3.8C473.2,196.8,473.2,203.1,473.2,209.5z M507.3,429.6c0-0.7,0.1-1.5,0.1-2.2c-2-1.5-3.9-4-6.1-4.4
					c-3.1-0.6-6,1.8-5.2,5.1c0.5,2.2,3.2,4.8,5.4,5.3C503,433.7,505.4,431,507.3,429.6z M537.5,530.8c0.7,0,1.5,0,2.3,0
					c1.4-2,4.1-4.2,3.8-5.8c-0.4-2.2-3.3-3.8-5.1-5.7c-1.7,1.7-4.8,3.4-4.9,5.2C533.5,526.6,536.1,528.7,537.5,530.8z M476.1,178.3
					c0.4,0,0.9,0.1,1.3,0.1c0-5,0-10,0-14.8C474.9,164.9,474,172,476.1,178.3z"/>
				<path class="st1" d="M259.2,216.4c-11.4-4.1-22.2-3.7-32.5,2.2c-10.4,6-14.5,16.5-17.6,27.6c-0.4,0.1-0.9,0.2-1.4,0.4
					c-1.3-1.7-2.8-3.4-3.8-5.3c-5.1-10.3-2-24.3,7.9-33.2c11.4-10.3,24.9-14.5,41.2-11.5c-2.2-1.8-3.9-3.1-5.4-4.6
					c-2.7-2.9-5.9-5.6-7.7-9c-6.2-11.3-15.1-19.3-27-24c-0.6-0.2-1-0.7-1.6-1c18.4-11,54.2-1.2,59.8,29.2
					c8.7-16.4,20.5-27.3,39.6-26.7c9.5,0.4,18.5,2.9,25.4,10.5c-32.4,10-41.4,15.1-48.5,27.6c16.1-5.3,31.4-5.9,42,9.9
					c7.3,11,4.5,28.7-5.5,39.6c-2.5-13.4-6.3-25.9-19.7-33.4c8.1,17.8,8.7,34.5-3.5,50c-6.5,8.2-15.1,12.3-26.7,12.7
					c10.1-10.4,14.9-21.8,13.7-35.3c-0.6-6.6-2.8-12.6-8.6-18c4.4,18.8,0.8,34.3-14.1,46c-6.9,5.5-14.8,7.7-24.4,5.2
					c14.8-11.9,23.2-26,21.4-45.2c-34.1,19.3-65.9,87.3-62,132.6c9.5,0,18.8-0.3,28.2,0.1c44.3,1.5,86.7,11.5,127,29.7
					c13.3,10.7,30.5,9.3,45.6,14.4c4.1,1.4,8.4,2.4,12.2,4.2c6.1,2.9,6.5,6.7,0.6,9.9c-5.5,3-11.3,5.3-17.3,6.9
					c-29.2,7.9-59,10.7-89.3,10.4c-29.4-0.2-58.9,0-88.3,0.1c-1.5,0-3.2-0.5-4.2,0.1c-2,1.2-4.7,3.1-4.8,4.7
					c-0.1,1.8,2.3,4.1,4.1,5.5c1.2,0.9,3.4,0.4,5.2,0.4c31.7,0,63.3-0.1,95-0.1c0.9,0,1.8,0.1,4.1,0.2
					c-19.6,8.3-35.5,18.9-43.9,38.5c-2.7,0-5.6,0-8.4,0c-21.4,0-42.9,0-64.3,0c-1.7,0-3.9-0.4-5.2,0.4c-1.9,1.2-4.3,3.5-4.2,5.3
					c0,1.7,2.7,3.9,4.7,4.7c2,0.9,4.7,0.4,7.1,0.4c20.8,0,41.6,0.1,62.4,0.1c1.7,0,3.5,0,4.6,0c1.7,12.9,3.3,25.1,5,37.9
					c-4.4,0-9.1,0.1-13.8,0c-3.9-0.1-7.1,1.2-7,5.4c0.1,3.8,3.1,5.2,6.8,5.2c4.6,0,9.2,0,14.4,0c-2,19-14.4,30.6-27.1,42.2
					c-38.8-25.7-70.8-57.4-94.1-97.6c-28.8-49.8-39.6-103.2-32.6-160.3c7.5-60.9,33-113.1,76.9-156.1c8.4-8.2,9.2-8.3,19.3-2.3
					c4.3,2.5,7.7,6.5,12.1,10.3c-13.3,6.5-24.1,14.3-31.7,25.7c-8.6,12.9-17.2,25.9-24.6,39.5c-19.5,35.6-29.5,73.7-29.3,114.4
					c0,2.4,0,4.8,0,7.8c9.6-1.7,18.8-3.4,28.2-5.2c0,8.5,0,16.4,0,25c-8.6,0-17.3,0-26.8,0c0.6,3.9,1.1,7.1,1.7,10.8
					c8.7,0,17.1,0,25.5,0c1.8,12.9,3.6,25.4,5.3,38.3c1.4-0.4,2.1-0.7,2.8-0.9c6.5-2.9,6.3-2.9,5.2-10.2
					c-6.2-39.8-6.8-79.4,4.6-118.4c9.2-31.6,24.9-59.5,50-81.4C247,224.2,253.1,220.7,259.2,216.4z M201.8,390.8
					c-0.1,10.3,0.1,10.4,9.4,10.4c25.1,0,50.2,0,75.3,0c1.5,0,3.3,0.4,4.2-0.3c1.7-1.2,4.4-3.4,4.1-4.8c-0.3-2-2.7-3.9-4.5-5.3
					c-0.8-0.7-2.5-0.2-3.8-0.2c-26.4,0.1-52.8,0.1-79.2,0.1C205.6,390.8,203.7,390.8,201.8,390.8z M310.9,401.3
					c7.3-0.1,9.6-2.3,8.4-6.9c-1.4-5-5.7-3.6-9.2-3.7c-3.1-0.1-6,1-6,4.6c-0.1,1.6,1.2,3.7,2.5,4.7C308,401,310.3,401.2,310.9,401.3
					z"/>
				<path class="st1" d="M304.1,612.2c7.6-5.8,15.4-10.8,22.1-17.1c11-10.1,13.1-22.8,6.6-36.3c-2.7-5.6-6.2-10.8-9.7-15.9
					c-20.4-29-7.9-55.7,13.2-71.3c15.1-11.1,32.7-15.6,50.2-20.6c14.6-4.1,29-8.8,43.5-13.5c4.1-1.3,7.7-3.9,11.6-5.7
					c0.9-0.4,2.2-0.2,3.3-0.4c-0.3,1.1-0.3,2.7-1,3.2c-4.3,3.1-8.4,6.9-13.2,8.5c-18.3,6.2-36.8,11.6-55.2,17.4
					c-14.3,4.4-28.4,9.2-39.8,19.2c-15.1,13-16.5,30.2-2.3,44.3c8.7,8.6,19,15.4,28.9,22.9c8.7,6.6,17.9,12.4,26,19.6
					c14.4,12.7,15.1,26.1,3.4,41.3c-8.4,11-17.7,18.5-33.1,15.1c-16.4-3.6-32.9-6-49.4-9C307.4,613.8,305.6,612.8,304.1,612.2z"/>
				<path class="st1" d="M241.1,144c23.3-15.2,49.4-26,77.1-32.6c50.9-12.4,101.2-9.7,150.9,6.1c13.2,4.2,10.3,1.2,9.8,14.1
					c-5.1,3.5-9.7,6.7-15.1,10.5c-66.8-21.6-133.1-18.7-196,15.1C258.7,152.7,250,148.3,241.1,144z"/>
				<path class="st1" d="M393.6,182.1c19.1-0.4,35,14.8,35.4,34.1c0.4,18.5-15.2,34.8-33.9,35.3c-19.5,0.5-35.4-14.6-36-34.1
					C358.6,197.9,373.5,182.5,393.6,182.1z"/>
				<path class="st1" d="M265.7,597.2c-2.5-1.1-4.1-1.8-6.2-2.8c3.1-3.3,5.8-6.4,8.9-9.4c17.5-17.2,23-37.7,16.7-61.4
					c-2.3-8.7-3.5-17.5-1.5-26.5s6.3-16.7,13.5-22.6c0.7-0.5,1.5-0.8,3.3-1.7c-0.8,1.7-1,2.6-1.5,3.3c-9.5,12.6-11.1,26.5-7.1,41.4
					c1.5,5.7,3.1,11.4,4.3,17.2c3.3,16.9-2.4,31.6-13.1,44.4C277.6,585.3,271.5,591.1,265.7,597.2z"/>
				<path class="st1" d="M392.8,623.6c9.2-12.1,20.9-21.7,19.3-38.6c0.5-0.1,1-0.4,1.5-0.5c0.9,1.2,2.6,2.4,2.6,3.6
					c-0.3,4.9,0.2,10.3-2,14.4c-3.6,6.8-8.7,12.8-13.8,18.6C398.9,622.8,395.4,622.8,392.8,623.6z"/>
			</g>
			<g>
				<path class="st1" d="M111.8,538.4c-7.9,3.8-15.1,4.4-21.7,1.8c-6.5-2.5-12.1-8.1-16.4-16.7c-5.1-10-6.4-19-3.9-27.2
					c2.5-8.1,8.7-14.7,18.6-19.7c9.3-4.8,18.2-5.8,26.6-3.1c8.4,2.7,15.1,8.7,19.8,18.1c1.6,3.1,2.8,6.2,3.5,9.2
					c0.7,3.1,1,6.2,0.9,9.3l3.9-0.1l4.8,9.4l-23.8,12.2l-5.3-10.4c5-3.9,8.3-7.5,9.7-10.8c1.5-3.3,1.3-6.8-0.5-10.3
					c-2.1-4.1-5.3-6.2-9.7-6.3c-4.4-0.1-10.4,1.8-18,5.7c-7.9,4-13,7.9-15.6,11.6c-2.5,3.7-2.6,7.7-0.4,12c2,3.9,5,6.4,9.1,7.5
					s8.6,0.5,13.5-1.6L111.8,538.4z"/>
				<path class="st1" d="M139.7,578.3c-3.7,3.4-5.7,6.4-6.2,8.9c-0.4,2.5,0.7,5.2,3.2,7.9c3,3.3,5.9,4.9,8.7,4.9
					c2.8,0.1,5.8-1.5,9.2-4.6l21.7-20.1c1.9-1.7,2.8-3.1,2.8-3.9c0-0.9-0.8-2.1-2.3-3.8l-2.3-2.4l6.8-6.3l20.5,22.1l-6.8,6.3l-2-2.2
					c-1.5-1.7-2.8-2.5-3.6-2.6s-2.2,0.7-3.9,2.3l-23,21.4c-5.1,4.7-10.7,6.5-16.7,5.2s-12.4-5.4-19-12.5c-6-6.5-9.3-12.7-10-18.6
					c-0.7-6,1.4-11.2,6.2-15.6l23.4-21.7c1.8-1.7,2.7-3,2.7-3.9c0-0.9-0.8-2.2-2.3-3.9l-2.3-2.4l6.8-6.3l26.7,28.8l-6.8,6.3
					l-2.5-2.6c-1.6-1.7-2.8-2.6-3.7-2.7c-0.9-0.1-2.3,0.7-4.1,2.4L139.7,578.3z"/>
				<path class="st1" d="M172.7,640.3l4.8-7.9l2.8,1.7c1.8,1.1,3.2,1.7,4,1.5c0.9-0.1,1.9-1.2,3.1-3.2l0.2-0.4l18.5-30.3
					c1.3-2.2,1.9-3.6,1.6-4.5c-0.2-0.8-1.3-1.8-3.3-3.1l-2.7-1.7l4.8-7.9L240,605c7.3,4.4,11.9,8.7,14,12.9c2.1,4.1,1.7,8.5-0.9,13
					c-1.9,3.1-4.5,5.2-7.8,6.2c-3.3,1-7.2,1-11.6-0.1c4.2,4,6.8,7.9,7.7,11.6c0.9,3.8,0.3,7.5-2,11.3c-3.3,5.5-7.6,8.2-12.8,8.2
					c-5.2,0.1-12.3-2.6-21.2-8.1L172.7,640.3z M203,648.2l3.6,2.2c3.3,2,6.2,2.8,8.5,2.3s4.4-2.4,6.4-5.6c1.8-2.9,2.3-5.6,1.7-7.9
					c-0.7-2.3-2.7-4.5-5.9-6.5l-3.5-2.1L203,648.2z M218.2,623.2l3.1,1.8c2.9,1.8,5.5,2.5,7.6,2.1c2.1-0.4,3.9-1.9,5.5-4.5
					c1.6-2.6,2.1-4.8,1.5-6.7s-2.3-3.7-5.2-5.5l-3.3-2L218.2,623.2z"/>
				<path class="st1" d="M274.1,691.6l2.8-8.8l2.8,0.9c2.3,0.7,3.9,1.1,4.4,1c0.6-0.1,1-0.5,1.2-1.2c0.1-0.5,0.3-0.9,0.4-1.4
					c0.1-0.4,0.1-0.9,0.1-1.4l-0.1-7.3l-16.7-5.4l-3.9,5.3c-0.7,0.8-1.1,1.5-1.4,1.9c-0.3,0.4-0.5,0.9-0.7,1.3
					c-0.1,0.5,0.1,1.1,0.7,1.6c0.7,0.5,1.7,1,3.1,1.5l3.1,1l-2.8,8.8l-27.7-9l2.8-8.8l2.3,0.7c1.5,0.5,3.1,0.4,4.4-0.2
					c1.4-0.7,2.8-2,4.4-4l31.5-41.5l22.4,7.3l-0.7,51.3c0,3.4,0.3,5.5,0.9,6.5c0.6,0.9,1.8,1.7,3.6,2.3l3.3,1l-2.8,8.8L274.1,691.6z
					 M285.7,663.5l0.4-20.6l-11.3,17L285.7,663.5z"/>
				<path class="st1" d="M377,654c-3.6,0.1-6.3,1.4-8.1,3.9c-1.8,2.5-2.7,6-2.5,10.6v0.3l-9.6,0.3l-0.7-24.6l68.5-2.1l0.7,24.6
					l-9.5,0.3v-0.3c-0.1-4.6-1.2-8.1-3.2-10.4c-2-2.4-4.8-3.5-8.4-3.4l-2.8,0.1l1.2,40.1c0.1,2.5,0.4,4.1,1.2,4.7
					c0.7,0.6,2.2,0.9,4.5,0.8l5.5-0.1l0.3,9.2l-42.8,1.3l-0.3-9.2l5.1-0.1c2.2-0.1,3.6-0.4,4.3-0.9c0.7-0.5,0.9-2.2,0.9-4.9
					l-1.2-40.1L377,654z"/>
				<path class="st1" d="M434.6,674c-3.1-10.3-2.3-19.4,2.4-27.2c4.7-7.8,12.7-13.4,24-16.7c11.3-3.3,20.9-3.1,29.2,0.9
					c8.1,4,13.7,11.1,16.8,21.4c3.1,10.3,2.3,19.3-2.4,27.1c-4.7,7.8-12.7,13.3-24.1,16.7c-11.3,3.3-20.9,3.1-29.1-0.9
					C443.2,691.3,437.6,684.2,434.6,674z M463.8,639.6c-4.2,1.2-6.7,4-7.6,8.3c-0.8,4.3,0,10.5,2.4,18.8c2.5,8.4,5.2,14.1,8.2,17.3
					c3,3.1,6.6,4.1,10.8,2.9c4.2-1.2,6.8-4,7.6-8.3c0.8-4.3,0-10.5-2.5-18.8c-2.5-8.3-5.2-14-8.2-17.2
					C471.6,639.4,468,638.3,463.8,639.6z"/>
				<path class="st1" d="M545.5,642.5c2.6,4.3,5.2,6.8,7.6,7.8c2.4,0.9,5.2,0.4,8.4-1.6c3.8-2.3,6-4.9,6.5-7.6s-0.3-6-2.7-9.9
					l-15.6-25.1c-1.4-2.2-2.5-3.3-3.3-3.5c-0.9-0.1-2.3,0.4-4.1,1.6l-2.8,1.7l-4.9-7.8l25.7-15.9l4.9,7.8l-2.5,1.6
					c-2,1.2-3.1,2.2-3.3,3.1c-0.2,0.9,0.2,2.3,1.5,4.2l16.6,26.7c3.6,5.9,4.3,11.7,2,17.5s-7.6,11.1-15.9,16.2
					c-7.5,4.7-14.3,6.7-20.2,6.3c-6-0.5-10.7-3.5-14.1-9l-16.8-27.1c-1.3-2.1-2.4-3.2-3.3-3.4c-0.9-0.1-2.3,0.4-4.3,1.5l-2.8,1.7
					l-4.9-7.8l33.4-20.6l4.9,7.8l-3.1,1.9c-2,1.2-3.1,2.3-3.3,3.1s0.3,2.3,1.6,4.4L545.5,642.5z"/>
				<path class="st1" d="M606.8,606.8l-26.4-23.8c-1.9-1.7-3.3-2.5-4.1-2.4c-0.9,0.1-2,0.9-3.6,2.7l-2.2,2.4l-6.8-6.2l30-33.3
					c5.3-5.9,10.3-9.4,14.9-10.5c4.6-1.1,8.9,0.1,12.9,3.9c2.7,2.5,4.2,5.4,4.4,8.9s-0.8,7.1-3.1,11c3.3-2.9,6.4-4.2,9-3.9
					c2.7,0.3,6.8,3.1,12.6,8.2c1.7,1.6,3.1,2.5,4,2.8c0.9,0.3,1.7,0.1,2.3-0.6c0.6-0.7,0.7-1.5,0.1-2.5c-0.5-1.1-1.6-2.3-3.3-3.9
					c-0.1-0.1-0.4-0.4-0.9-0.7c-0.4-0.3-0.7-0.6-0.9-0.7l4.4-4.9c0.2,0.2,0.5,0.4,1,0.9c0.4,0.4,0.8,0.7,1,0.9
					c4.5,4.1,6.9,7.9,7.3,11.6c0.4,3.7-1.3,7.6-5.1,11.7c-3.9,4.4-7.8,6.8-11.4,7.1s-7.4-1.2-11.4-4.9l-4.1-3.6
					c-3.3-2.9-5.7-4.4-7.3-4.3s-3.7,1.5-6.1,4.1l-3.9,4.3l10.8,9.8c1.9,1.7,3.3,2.5,4.1,2.4c0.9-0.1,2-0.9,3.6-2.6l2.5-2.8l6.8,6.2
					l-26.2,29.1l-6.8-6.2l2.2-2.4c1.5-1.7,2.3-3,2.3-3.9C609.6,609.8,608.7,608.5,606.8,606.8z M603.7,575.3l3.8-4.2
					c2.7-3,4.1-5.5,4.2-7.6c0.1-2-0.9-4.1-3.1-6.1c-2.5-2.2-4.7-3.2-6.6-3c-2,0.2-4.3,1.7-6.8,4.6l-4.3,4.7L603.7,575.3z"/>
				<path class="st1" d="M650.9,540.6l4.4-8.3c5.2,1,9.8,0.6,14-1.2s7.4-4.9,9.7-9.2c1.4-2.6,2-4.9,1.7-7.1
					c-0.3-2.2-1.3-3.7-3.1-4.7c-2.8-1.5-6.9,0.7-12.4,6.5c-1.7,1.9-3.2,3.3-4.2,4.4c-3.4,3.4-6.1,6-8.1,7.7c-2,1.7-3.7,2.9-4.9,3.5
					c-3,1.4-5.8,2-8.5,2c-2.7,0-5.4-0.7-8.1-2.2c-5.7-3.1-9.2-7.7-10.5-13.9c-1.2-6.2,0-12.8,3.8-19.8c1.9-3.6,4.1-6.7,6.4-9.5
					c2.3-2.7,5-5.2,8-7.3l-2-3.1l4.4-8.2l19.9,10.7l-5.2,9.7c-4.6-1.2-8.6-1.1-11.9,0.5c-3.4,1.5-6.3,4.5-8.6,8.9
					c-1.4,2.5-1.9,5-1.6,7.3c0.3,2.3,1.3,3.9,3,4.8c2.5,1.4,6.2-0.8,10.9-6.4c1.2-1.4,2.1-2.5,2.8-3.2c6.8-7.8,12.7-12.7,17.6-14.5
					c4.9-2,10-1.5,15.2,1.2c5.8,3.1,9.2,7.8,10.3,14c1.1,6.3-0.4,13.1-4.4,20.5c-1.8,3.4-3.9,6.5-6.4,9.2c-2.5,2.8-5.3,5.2-8.5,7.5
					l2,3.9l-4.2,7.9L650.9,540.6z"/>
			</g>
		</g>
	</g>
</g>
</svg>
